#!OML:ASF H:\Dans Jumps\Project 1\Capture day 1\Session 1\subject.ASF
:FULLY-SPECIFIED
:DEGREES
503
root 0.344281 17.7375 -0.979009 7.52988 0.172352 -1.48382
lowerback -3.9539 -0.564935 0.260879
upperback 2.35895 -0.829995 1.37654
thorax 4.67186 -0.427123 1.21076
lowerneck -12.0242 0.268179 -1.92826
upperneck 36.3203 0.590999 0.912886
head 14.493 0.107469 0.808813
rclavicle -5.56597e-015 -2.78299e-015
rhumerus -26.4142 -16.4276 -79.5635
rradius 22.7745
rwrist 36.7401
rhand -22.0396 -27.0969
rfingers 7.12502
rthumb 4.37052 -57.0318
lclavicle -5.56597e-015 -2.78299e-015
lhumerus -24.1593 -1.44689 89.5043
lradius 17.6394
lwrist 8.84489
lhand -24.3634 -6.77812
lfingers 7.12502
lthumb 2.12641 23.191
rfemur -11.9146 -2.35297 20.4938
rtibia 20.9394
rfoot -14.8054 1.16135
rtoes 18.1435
lfemur -8.36325 7.28396 -17.831
ltibia 17.0147
lfoot -11.3556 7.27495
ltoes 1.48735
504
root 0.347308 17.7368 -0.982651 7.49862 0.163706 -1.49127
lowerback -3.94534 -0.55672 0.257113
upperback 2.36443 -0.819082 1.38338
thorax 4.67266 -0.421964 1.22089
lowerneck -12.0252 0.270445 -1.92606
upperneck 36.3619 0.595004 0.910551
head 14.5127 0.10891 0.808524
rclavicle -2.16178e-015 1.0138e-014
rhumerus -26.4169 -16.4939 -79.5074
rradius 22.729
rwrist 36.7858
rhand -22.0035 -27.1035
rfingers 7.12502
rthumb 4.40537 -57.0376
lclavicle -2.16178e-015 1.0138e-014
lhumerus -24.2022 -1.3696 89.482
lradius 17.5713
lwrist 8.71127
lhand -24.3343 -6.74371
lfingers 7.12502
lthumb 2.15446 23.2252
rfemur -11.902 -2.3346 20.4893
rtibia 20.9549
rfoot -14.8045 1.15097
rtoes 18.1284
lfemur -8.35339 7.27427 -17.8323
ltibia 17.042
lfoot -11.3621 7.2928
ltoes 1.52429
505
root 0.350426 17.736 -0.986216 7.46818 0.156529 -1.49226
lowerback -3.93534 -0.548933 0.24953
upperback 2.36848 -0.808369 1.38776
thorax 4.67115 -0.416975 1.2306
lowerneck -12.0319 0.272158 -1.91772
upperneck 36.4101 0.598885 0.902046
head 14.537 0.11025 0.804681
rclavicle 4.02539e-015 -3.97569e-016
rhumerus -26.422 -16.5622 -79.4532
rradius 22.6886
rwrist 36.8298
rhand -21.9556 -27.112
rfingers 7.12502
rthumb 4.45161 -57.0452
lclavicle 4.02539e-015 -3.97569e-016
lhumerus -24.2512 -1.28407 89.4563
lradius 17.5108
lwrist 8.56374
lhand -24.3081 -6.71493
lfingers 7.12502
lthumb 2.17984 23.2537
rfemur -11.8914 -2.32158 20.4774
rtibia 20.974
rfoot -14.807 1.14308
rtoes 18.1124
lfemur -8.34024 7.26603 -17.8415
ltibia 17.0615
lfoot -11.366 7.30664
ltoes 1.56999
506
root 0.353614 17.7353 -0.989735 7.44012 0.150643 -1.48874
lowerback -3.92426 -0.54033 0.240662
upperback 2.36941 -0.796295 1.38899
thorax 4.66571 -0.411284 1.23789
lowerneck -12.0403 0.273193 -1.90476
upperneck 36.4632 0.600713 0.893072
head 14.564 0.111251 0.799562
rclavicle -4.79568e-015 -8.54774e-015
rhumerus -26.432 -16.6335 -79.4013
rradius 22.6522
rwrist 36.8712
rhand -21.8988 -27.1203
rfingers 7.12502
rthumb 4.50651 -57.0524
lclavicle -4.79568e-015 -8.54774e-015
lhumerus -24.3072 -1.20659 89.4296
lradius 17.4552
lwrist 8.41451
lhand -24.2788 -6.67176
lfingers 7.12502
lthumb 2.20807 23.2966
rfemur -11.883 -2.31336 20.4605
rtibia 20.9921
rfoot -14.8095 1.13801
rtoes 18.0945
lfemur -8.32914 7.26084 -17.8566
ltibia 17.0792
lfoot -11.3693 7.31734
ltoes 1.61169
507
root 0.356829 17.7348 -0.993293 7.41473 0.148057 -1.48529
lowerback -3.91391 -0.531704 0.234856
upperback 2.36799 -0.784273 1.38851
thorax 4.65816 -0.405483 1.2417
lowerneck -12.043 0.273753 -1.89212
upperneck 36.5146 0.600608 0.88737
head 14.589 0.111852 0.795497
rclavicle 2.48481e-015 -4.57205e-015
rhumerus -26.4481 -16.6893 -79.3581
rradius 22.6276
rwrist 36.8893
rhand -21.8362 -27.1293
rfingers 7.12502
rthumb 4.56692 -57.0601
lclavicle 2.48481e-015 -4.57205e-015
lhumerus -24.3665 -1.16994 89.411
lradius 17.4
lwrist 8.29779
lhand -24.2696 -6.65347
lfingers 7.12502
lthumb 2.21699 23.3148
rfemur -11.8759 -2.30729 20.4439
rtibia 21.0077
rfoot -14.8109 1.13198
rtoes 18.0797
lfemur -8.32188 7.26127 -17.8719
ltibia 17.0965
lfoot -11.3732 7.32052
ltoes 1.64768
508
root 0.360068 17.7343 -0.996876 7.39595 0.151379 -1.49699
lowerback -3.9094 -0.523754 0.246292
upperback 2.36415 -0.774389 1.3923
thorax 4.6513 -0.400261 1.24002
lowerneck -12.04 0.273907 -1.88609
upperneck 36.5611 0.599397 0.887737
head 14.6103 0.111942 0.79486
rclavicle -1.19271e-015 -3.18055e-015
rhumerus -26.4674 -16.7284 -79.322
rradius 22.6136
rwrist 36.8878
rhand -21.7687 -27.1362
rfingers 7.12502
rthumb 4.63208 -57.0656
lclavicle -1.19271e-015 -3.18055e-015
lhumerus -24.4257 -1.16862 89.4013
lradius 17.3459
lwrist 8.21567
lhand -24.2652 -6.63676
lfingers 7.12502
lthumb 2.22127 23.3314
rfemur -11.8731 -2.30158 20.4449
rtibia 21.0179
rfoot -14.8091 1.12283
rtoes 18.0645
lfemur -8.32471 7.26452 -17.8708
ltibia 17.1164
lfoot -11.377 7.31933
ltoes 1.67544
509
root 0.363334 17.7338 -1.00028 7.37724 0.157138 -1.50702
lowerback -3.90786 -0.517789 0.254971
upperback 2.36164 -0.76709 1.39713
thorax 4.64761 -0.396435 1.24074
lowerneck -12.0332 0.275638 -1.88147
upperneck 36.6018 0.601333 0.886714
head 14.628 0.113047 0.79431
rclavicle -7.0817e-015 1.74931e-014
rhumerus -26.4855 -16.7435 -79.2954
rradius 22.6116
rwrist 36.8598
rhand -21.7005 -27.1412
rfingers 7.12502
rthumb 4.69801 -57.0691
lclavicle -7.0817e-015 1.74931e-014
lhumerus -24.483 -1.19635 89.4001
lradius 17.2947
lwrist 8.16826
lhand -24.2687 -6.61894
lfingers 7.12502
lthumb 2.21788 23.3493
rfemur -11.8674 -2.29842 20.4441
rtibia 21.0239
rfoot -14.8057 1.11415
rtoes 18.0489
lfemur -8.32835 7.26883 -17.8716
ltibia 17.1378
lfoot -11.3823 7.31586
ltoes 1.69664
510
root 0.366648 17.7334 -1.00353 7.35847 0.166183 -1.51899
lowerback -3.90806 -0.513869 0.26447
upperback 2.36034 -0.762729 1.40476
thorax 4.64628 -0.394096 1.24365
lowerneck -12.0253 0.27895 -1.87902
upperneck 36.6375 0.607027 0.883477
head 14.643 0.115204 0.793762
rclavicle 4.74598e-015 -1.21259e-014
rhumerus -26.5008 -16.7411 -79.2744
rradius 22.6168
rwrist 36.8183
rhand -21.6357 -27.1455
rfingers 7.12502
rthumb 4.76056 -57.072
lclavicle 4.74598e-015 -1.21259e-014
lhumerus -24.5375 -1.24524 89.4067
lradius 17.2451
lwrist 8.15201
lhand -24.2712 -6.60032
lfingers 7.12502
lthumb 2.2154 23.3679
rfemur -11.8593 -2.29607 20.4453
rtibia 21.0272
rfoot -14.8009 1.10302
rtoes 18.0302
lfemur -8.33165 7.27266 -17.8702
ltibia 17.1588
lfoot -11.3889 7.30992
ltoes 1.72124
511
root 0.370054 17.733 -1.00653 7.33831 0.176545 -1.52471
lowerback -3.90969 -0.511532 0.267614
upperback 2.36076 -0.760123 1.41182
thorax 4.64765 -0.392827 1.24938
lowerneck -12.0189 0.283609 -1.87487
upperneck 36.6706 0.615627 0.876584
head 14.6572 0.118365 0.791834
rclavicle -4.17448e-015 -1.39149e-015
rhumerus -26.5139 -16.7319 -79.2579
rradius 22.6261
rwrist 36.7717
rhand -21.5784 -27.1531
rfingers 7.12502
rthumb 4.81586 -57.0784
lclavicle -4.17448e-015 -1.39149e-015
lhumerus -24.5917 -1.29076 89.4129
lradius 17.2032
lwrist 8.14256
lhand -24.2643 -6.58508
lfingers 7.12502
lthumb 2.22213 23.3831
rfemur -11.8486 -2.2959 20.4389
rtibia 21.0323
rfoot -14.7979 1.09199
rtoes 18.013
lfemur -8.32959 7.27358 -17.876
ltibia 17.1745
lfoot -11.3946 7.3042
ltoes 1.76091
512
root 0.373509 17.7326 -1.00937 7.31673 0.186692 -1.52335
lowerback -3.90913 -0.510202 0.263351
upperback 2.36199 -0.758374 1.41799
thorax 4.64874 -0.392205 1.25831
lowerneck -12.0168 0.289428 -1.87004
upperneck 36.7027 0.627145 0.866264
head 14.6718 0.122411 0.788834
rclavicle -8.59744e-015 6.16232e-015
rhumerus -26.521 -16.7259 -79.243
rradius 22.6317
rwrist 36.7328
rhand -21.5298 -27.1647
rfingers 7.12502
rthumb 4.86277 -57.0889
lclavicle -8.59744e-015 6.16232e-015
lhumerus -24.6484 -1.3074 89.4107
lradius 17.1798
lwrist 8.13029
lhand -24.2263 -6.55591
lfingers 7.12502
lthumb 2.25881 23.4119
rfemur -11.8371 -2.29668 20.4243
rtibia 21.0407
rfoot -14.7978 1.07996
rtoes 17.991
lfemur -8.32279 7.27213 -17.8897
ltibia 17.186
lfoot -11.3985 7.29885
ltoes 1.81142
513
root 0.377083 17.7323 -1.0121 7.2956 0.196446 -1.51895
lowerback -3.90526 -0.510194 0.25702
upperback 2.3609 -0.758201 1.42427
thorax 4.64558 -0.392421 1.2684
lowerneck -12.0166 0.295955 -1.8655
upperneck 36.7348 0.640736 0.853484
head 14.6869 0.126955 0.785196
rclavicle 5.31749e-015 -5.96354e-015
rhumerus -26.5288 -16.7233 -79.2273
rradius 22.6351
rwrist 36.7084
rhand -21.4935 -27.1685
rfingers 7.12502
rthumb 4.89786 -57.0919
lclavicle 5.31749e-015 -5.96354e-015
lhumerus -24.7112 -1.303 89.4031
lradius 17.171
lwrist 8.11284
lhand -24.1835 -6.5296
lfingers 7.12502
lthumb 2.30013 23.4377
rfemur -11.8278 -2.30278 20.4055
rtibia 21.0536
rfoot -14.8002 1.0726
rtoes 17.9661
lfemur -8.31415 7.27086 -17.9076
ltibia 17.1942
lfoot -11.4011 7.29236
ltoes 1.87295
514
root 0.380682 17.7318 -1.01494 7.27635 0.204394 -1.51346
lowerback -3.89708 -0.509097 0.251753
upperback 2.3568 -0.756467 1.42881
thorax 4.63676 -0.391784 1.27626
lowerneck -12.015 0.301169 -1.86292
upperneck 36.7637 0.651289 0.845004
head 14.7002 0.130536 0.783175
rclavicle -1.78906e-015 -4.17448e-015
rhumerus -26.537 -16.7286 -79.2127
rradius 22.634
rwrist 36.6953
rhand -21.4724 -27.1678
rfingers 7.12502
rthumb 4.91823 -57.0907
lclavicle -1.78906e-015 -4.17448e-015
lhumerus -24.7785 -1.29569 89.3931
lradius 17.1982
lwrist 8.12238
lhand -24.0843 -6.29761
lfingers 7.12502
lthumb 2.39598 23.6687
rfemur -11.8222 -2.30965 20.3856
rtibia 21.068
rfoot -14.8029 1.06752
rtoes 17.9437
lfemur -8.31015 7.27039 -17.9274
ltibia 17.2064
lfoot -11.4025 7.28772
ltoes 1.93075
515
root 0.384276 17.7314 -1.01797 7.25812 0.212266 -1.50866
lowerback -3.88567 -0.507521 0.248623
upperback 2.35144 -0.75413 1.43257
thorax 4.62474 -0.390756 1.28217
lowerneck -12.0102 0.304825 -1.86252
upperneck 36.7862 0.658395 0.840911
head 14.7097 0.132991 0.782737
rclavicle 4.96962e-017 1.0138e-014
rhumerus -26.5466 -16.7244 -79.2046
rradius 22.6383
rwrist 36.6751
rhand -21.4621 -27.1698
rfingers 7.12502
rthumb 4.92819 -57.0925
lclavicle 4.96962e-017 1.0138e-014
lhumerus -24.8457 -1.30315 89.3866
lradius 17.254
lwrist 8.17154
lhand -23.9512 -5.86514
lfingers 7.12502
lthumb 2.52449 24.0997
rfemur -11.8191 -2.31835 20.3667
rtibia 21.0825
rfoot -14.8046 1.06361
rtoes 17.924
lfemur -8.31194 7.27125 -17.9465
ltibia 17.2254
lfoot -11.4045 7.2819
ltoes 1.98265
516
root 0.387828 17.7309 -1.02129 7.245 0.22376 -1.51639
lowerback -3.87305 -0.505337 0.259709
upperback 2.3421 -0.751849 1.43884
thorax 4.60774 -0.389335 1.28272
lowerneck -11.9992 0.305938 -1.86613
upperneck 36.8027 0.660302 0.843189
head 14.7149 0.133591 0.78475
rclavicle 9.14409e-015 -3.97569e-016
rhumerus -26.5635 -16.7081 -79.2023
rradius 22.6538
rwrist 36.644
rhand -21.4614 -27.1689
rfingers 7.12502
rthumb 4.92883 -57.0915
lclavicle 9.14409e-015 -3.97569e-016
lhumerus -24.9123 -1.3305 89.3853
lradius 17.3269
lwrist 8.25269
lhand -23.7912 -5.27719
lfingers 7.12502
lthumb 2.67903 24.6857
rfemur -11.8221 -2.32461 20.3626
rtibia 21.0958
rfoot -14.804 1.05676
rtoes 17.9131
lfemur -8.32535 7.27512 -17.9518
ltibia 17.2516
lfoot -11.4075 7.271
ltoes 2.02599
